<svg xmlns="http://www.w3.org/2000/svg" xmlns:xlink="http://www.w3.org/1999/xlink" width="420" height="340" viewBox="0 0 420 340">
  <defs>
    <linearGradient id="linear-gradient" x1="1" x2="0.03" y2="0.948" gradientUnits="objectBoundingBox">
      <stop offset="0" stop-color="#115173"/>
      <stop offset="1" stop-color="#053f5e"/>
    </linearGradient>
    <filter id="bg" x="0" y="0" width="420" height="340" filterUnits="userSpaceOnUse">
      <feOffset dy="10" input="SourceAlpha"/>
      <feGaussianBlur stdDeviation="7.5" result="blur"/>
      <feFlood flood-opacity="0.039"/>
      <feComposite operator="in" in2="blur"/>
      <feComposite in="SourceGraphic"/>
    </filter>
    <filter id="bg-2" x="0" y="0" width="420" height="340" filterUnits="userSpaceOnUse">
      <feOffset dy="10" input="SourceAlpha"/>
      <feGaussianBlur stdDeviation="7.5" result="blur-2"/>
      <feFlood flood-opacity="0.039"/>
      <feComposite operator="in" in2="blur-2"/>
      <feComposite in="SourceGraphic"/>
    </filter>
    <clipPath id="clip-path">
      <g transform="matrix(1, 0, 0, 1, 0, 0)" filter="url(#bg)">
        <path id="bg-3" data-name="bg" d="M0,0H375a0,0,0,0,1,0,0V265a30,30,0,0,1-30,30H30A30,30,0,0,1,0,265V0A0,0,0,0,1,0,0Z" fill="url(#linear-gradient)"/>
      </g>
    </clipPath>
  </defs>
  <g id="Group_18457" data-name="Group 18457" transform="translate(22.5 12.5)">
    <g transform="matrix(1, 0, 0, 1, -22.5, -12.5)" filter="url(#bg-2)">
      <path id="bg-4" data-name="bg" d="M0,0H375a0,0,0,0,1,0,0V265a30,30,0,0,1-30,30H30A30,30,0,0,1,0,265V0A0,0,0,0,1,0,0Z" transform="translate(22.5 12.5)" fill="url(#linear-gradient)"/>
    </g>
    <g id="Group_18433" data-name="Group 18433" transform="translate(-211.955 14.976)">
      <path id="Path_32" data-name="Path 32" d="M386.153,143.6s15.674,4.28,30.263-.837c22.135-7.765,37.494-24.084,43.8-31.771L458.9,108.7a5.409,5.409,0,0,0-7.4-1.987l-31.637,18.22V88.441a5.41,5.41,0,0,0-5.418-5.417H385.549a5.41,5.41,0,0,0-5.417,5.417v36.514l-31.638-18.221a5.426,5.426,0,0,0-7.4,1.986l-1.317,2.29C346.3,119.028,362.585,136.377,386.153,143.6ZM400,116.585a10.7,10.7,0,1,1-10.7,10.7A10.7,10.7,0,0,1,400,116.585Z" fill="#fff"/>
      <path id="Path_33" data-name="Path 33" d="M471.323,177.43l-31.51-18.13,31.51-18.148a5.41,5.41,0,0,0,1.987-7.4l-6.081-10.568c-17.477,6.9-76.127,36.089-60.417,112.415h7.629a5.411,5.411,0,0,0,5.418-5.418V193.664l31.637,18.22a5.426,5.426,0,0,0,7.4-1.987l14.41-25.064A5.425,5.425,0,0,0,471.323,177.43Z" fill="#1080b9"/>
      <path id="Path_34" data-name="Path 34" d="M332.77,123.182l-6.09,10.585a5.427,5.427,0,0,0,1.987,7.4l31.511,18.13-31.511,18.148a5.406,5.406,0,0,0-1.987,7.385l14.41,25.047a5.411,5.411,0,0,0,7.4,1.986l31.638-18.2v36.513a5.411,5.411,0,0,0,5.417,5.418h7.633C408.891,159.276,350.253,130.085,332.77,123.182Z" fill="#1080b9"/>
      <path id="Path_35" data-name="Path 35" d="M418.348,149.53a.483.483,0,0,0-.521-.176,62.268,62.268,0,0,1-35.63.01.479.479,0,0,0-.564.715c.164.248,16.479,24.971,17.888,38.351a.479.479,0,0,0,.953,0c1.408-13.38,17.723-38.1,17.888-38.351A.478.478,0,0,0,418.348,149.53Z" fill="#0ebe5a"/>
    </g>
    <g id="Mask_Group_48" data-name="Mask Group 48" clip-path="url(#clip-path)">
      <g id="Group_18424" data-name="Group 18424" transform="translate(-97.309 0)" opacity="0.05">
        <path id="Path_32-2" data-name="Path 32" d="M400.727,85.227s20.6-5.625,39.773,1.1c29.09,10.2,49.276,31.652,57.561,41.754l-1.727,3a7.109,7.109,0,0,1-9.731,2.611l-41.578-23.945v47.963a7.11,7.11,0,0,1-7.121,7.119H399.933a7.109,7.109,0,0,1-7.119-7.119V109.724l-41.58,23.947a7.131,7.131,0,0,1-9.731-2.61l-1.731-3.01C348.355,117.514,369.753,94.713,400.727,85.227Zm18.194,35.5a14.057,14.057,0,1,0-14.057-14.057A14.056,14.056,0,0,0,418.921,120.725Z" transform="translate(-321.614 35.681)" fill="#fff"/>
        <path id="Path_33-2" data-name="Path 33" d="M492.426,199.622l-41.411,23.827L492.426,247.3a7.11,7.11,0,0,1,2.611,9.731l-7.992,13.889C464.076,261.85,387,223.49,407.643,123.18H417.67a7.112,7.112,0,0,1,7.12,7.12v47.986l41.578-23.945a7.131,7.131,0,0,1,9.731,2.611l18.938,32.94A7.129,7.129,0,0,1,492.426,199.622Z" transform="translate(-301.38 -123.18)" fill="#fff"/>
        <path id="Path_34-2" data-name="Path 34" d="M334.911,270.918l-8-13.911a7.132,7.132,0,0,1,2.611-9.729l41.413-23.827L329.519,199.6a7.1,7.1,0,0,1-2.611-9.706l18.938-32.917a7.111,7.111,0,0,1,9.731-2.61l41.58,23.922V130.3a7.111,7.111,0,0,1,7.119-7.12h10.031C434.952,223.482,357.888,261.846,334.911,270.918Z" transform="translate(-325.956 -123.182)" fill="#fff"/>
        <path id="Path_35-2" data-name="Path 35" d="M429.91,201.022a.634.634,0,0,1-.685.231c-25.681-7.561-46.618-.089-46.826-.013a.63.63,0,0,1-.741-.94c.216-.326,21.657-32.818,23.509-50.4a.63.63,0,0,1,1.252,0c1.85,17.584,23.292,50.076,23.509,50.4A.629.629,0,0,1,429.91,201.022Z" transform="translate(-308.486 -87.914)" fill="#fff"/>
      </g>
    </g>
  </g>
</svg>
